<svg xmlns="http://www.w3.org/2000/svg" width="430" height="430" fill="none" viewBox="0 0 430 430"><path fill="#728fc0" d="M362.74 265.45a206 206 0 0 0 35.37-49.07 3 3 0 0 0 0-2.77 206.2 206.2 0 0 0-35.37-49.06l-.478-.492v101.886zm-147.75 62.506a206 206 0 0 0 112.66-33.536q.813-.528 1.619-1.065V136.651q-.806-.534-1.619-1.061a206 206 0 0 0-225.32 0 189 189 0 0 0-3.605 2.407v154.008q1.785 1.222 3.605 2.415a206 206 0 0 0 112.66 33.536M31.89 216.38a206.5 206.5 0 0 0 35.19 48.9 179 179 0 0 0 3.55 3.594V161.129a157 157 0 0 0-3.55 3.601 206.2 206.2 0 0 0-35.19 48.88 3 3 0 0 0 0 2.77"/><path stroke="#ebe6ef" stroke-linecap="round" stroke-linejoin="round" stroke-width="7" d="M131.94 210.49h166.12m-147-21.66v47.57m30.7-47.57v47.57m30.71-47.57v47.57m30.7-47.57v47.57m30.71-47.57v47.57"/><path fill="#728fc0" d="M346.457 277.84c-2.29 1.65-4.63 3.25-7 4.79a206 206 0 0 1-225.33 0c-2.37-1.56-4.71-3.16-7-4.79a208 208 0 0 1-21.25-17.45q-3.58-3.36-7-6.9a206.5 206.5 0 0 1-35.18-48.9 3 3 0 0 1 0-2.77 206.2 206.2 0 0 1 31.69-45.17c-.43.39-.87.77-1.29 1.17-2.4 2.25-4.74 4.54-7 6.91a206.2 206.2 0 0 0-35.19 48.88 3 3 0 0 0 0 2.77 206.5 206.5 0 0 0 35.19 48.9q3.39 3.54 7 6.9a208 208 0 0 0 21.25 17.45c2.28 1.63 4.62 3.23 7 4.79a206 206 0 0 0 225.32 0q3.57-2.31 7-4.79a205 205 0 0 0 21.09-17.29c2.39-2.23 4.73-4.54 7-6.89 1.25-1.28 2.46-2.57 3.67-3.88a205 205 0 0 1-19.97 16.27" opacity=".5" style="mix-blend-mode:multiply"/><path fill="#ebe6ef" d="M327.5 135.494v159c2.37-1.56 4.75-3.19 7-4.82a209 209 0 0 0 21.3-17.45c2.39-2.24 4.64-4.44 6.9-6.8v-100.87c-2.26-2.37-4.49-4.52-6.88-6.77a208 208 0 0 0-21.3-17.47c-2.25-1.64-4.65-3.31-7.02-4.82"/><path fill="#ebe6ef" d="M327.5 289.865v4.625c2.37-1.56 4.75-3.19 7-4.82a209 209 0 0 0 21.3-17.45c2.39-2.24 4.64-4.44 6.9-6.8v-.501a206 206 0 0 1-16.26 12.921c-2.29 1.65-4.63 3.25-7 4.79a206 206 0 0 1-11.94 7.235" opacity=".5" style="mix-blend-mode:multiply"/><path fill="#ebe6ef" d="M102.33 135.59v158.83c-2.38-1.56-4.72-3.16-7-4.79a208 208 0 0 1-21.25-17.45q-3.6-3.36-7-6.9V164.73c2.26-2.37 4.6-4.66 7-6.91a207 207 0 0 1 21.25-17.44c2.28-1.64 4.67-3.24 7-4.79"/><path fill="#ebe6ef" d="m74.082 157.818.224-.21q.314-.287.632-.57.217-.193.432-.388a206 206 0 0 0-8.29 9.541v-1.461c2.26-2.37 4.6-4.66 7-6.91zM102.33 294.42v-20.107a208 208 0 0 1-16.47-13.923q-3.58-3.36-7-6.9a206 206 0 0 1-11.78-13.24v25.03l.01.011a181 181 0 0 0 6.98 6.879l.01.01q1.255 1.178 2.528 2.333a208 208 0 0 0 19.58 15.727 213 213 0 0 0 6.142 4.18" opacity=".5" style="mix-blend-mode:multiply"/></svg>