<svg xmlns="http://www.w3.org/2000/svg" width="430" height="430" fill="none" viewBox="0 0 430 430"><path stroke="#2a3d5d" stroke-linecap="round" stroke-miterlimit="10" stroke-width="7" d="m129.396 272.39-43.74 32.26m221.63-32.26 43.74 32.26"/><path fill="#728fc0" d="m401.196 208.56-8.19 41.37a30.875 30.875 0 0 1-30.27 24.86H67.296a30.88 30.88 0 0 1-30.29-24.86l-8.21-41.37a31.593 31.593 0 0 1 31-37.74v-9.67a35.833 35.833 0 0 1 35.84-35.8h238.73a35.84 35.84 0 0 1 35.85 35.8v9.63a31.59 31.59 0 0 1 30.98 37.78"/><path fill="#728fc0" d="m401.196 208.56-8.19 41.37a31 31 0 0 1-2.6 7.66 30.5 30.5 0 0 1-2 3.43c-.24.37-.49.72-.75 1.08s-.39.53-.6.78-.35.45-.53.66-.29.36-.45.54l-.11.13c-.26.3-.53.6-.82.9l-.92.92a30.76 30.76 0 0 1-21.51 8.75H67.286a30.855 30.855 0 0 1-30.28-24.85l-8.21-41.37c-.1-.52-.19-1-.27-1.57s-.16-1.22-.21-1.82a.2.2 0 0 1 0-.08v-.5c-.06-.79-.08-1.58-.08-2.36v-1.31a.24.24 0 0 1 0-.12c0-.44.05-.87.09-1.31s.08-.78.13-1.17c0-.13 0-.26.05-.4s0-.31.08-.47c0-.32.1-.64.16-1 .12-.63.26-1.26.42-1.88.06-.25.13-.5.2-.75a32 32 0 0 1 1.26-3.6q.45-1.05 1-2.07a31.66 31.66 0 0 1 18.91-16q.54-.17 1.08-.3a31.2 31.2 0 0 1 8.21-1.08l7.18 17.9 4.09 10.16 8.29 20.58a20 20 0 0 0 11 11 19.6 19.6 0 0 0 12 .86c4.28-1.06 9.15-2 14.53-2.88q4.42-.7 9.27-1.34l1.11-.15 1.13-.15 1.25-.15c21.57-2.63 48.49-4.15 76.07-4.46h2.4c34.22-.21 68.8 1.46 94.88 4.82l.47.06c3.34.43 6.54.89 9.58 1.38 5.38.86 10.25 1.82 14.53 2.88 3.991.978 8.189.677 12-.86a19.88 19.88 0 0 0 11-11l8.29-20.58 4.11-10.17 7.2-17.85a31.4 31.4 0 0 1 22.46 9.39c.35.36.7.72 1 1.1a32.2 32.2 0 0 1 4.34 6.19c.24.45.47.9.69 1.36a31.3 31.3 0 0 1 2.5 19.7" opacity=".5" style="mix-blend-mode:multiply"/><path fill="#edf1f7" d="m142.655 196.8-16.46 30.21c-3.22.42-6.32.87-9.26 1.34-5.39.86-10.25 1.82-14.54 2.88-3.99.98-8.189.679-12-.86a20 20 0 0 1-11-11l-8.29-20.58 16-30.82a8.33 8.33 0 0 1 8.109-4.465 8.3 8.3 0 0 1 3.121.905l40.8 21.17a8.327 8.327 0 0 1 3.52 11.22m220.43-8.15-12.38 30.74a19.88 19.88 0 0 1-11 11 19.6 19.6 0 0 1-12 .86c-4.28-1.06-9.15-2-14.53-2.88l-16.37-31.55a8.33 8.33 0 0 1 1.022-9.199 8.3 8.3 0 0 1 2.538-2.031l40.8-21.17a8.4 8.4 0 0 1 3.122-.905 8.34 8.34 0 0 1 8.108 4.465z"/><path fill="#edf1f7" d="M110.916 170.91c-1.81 1.11-4.13 4.13-5.16 6.11l-24.17 46.26a19.8 19.8 0 0 1-2.12-3.9l-8.29-20.58 16-30.82a8.32 8.32 0 0 1 4.876-4.11 8.33 8.33 0 0 1 6.354.55zm228.79 59.53a19.6 19.6 0 0 1-11.93.83c-4.28-1.06-9.15-2-14.53-2.88l-16.37-31.54a8.33 8.33 0 0 1 1.65-9.87 8.5 8.5 0 0 1 1.91-1.36l1.1-.58 12.11-6.29a10.3 10.3 0 0 0 .88 7.19z" opacity=".5" style="mix-blend-mode:multiply"/><path stroke="#728fc0" stroke-linecap="round" stroke-miterlimit="10" stroke-width="10" d="M159.525 172.493h.01m55.479 0h.01m55.462 0h.01"/></svg>