<svg xmlns="http://www.w3.org/2000/svg" width="430" height="430" fill="none" viewBox="0 0 430 430"><path fill="#728fc0" d="M372 181.6a23.45 23.45 0 0 1-13.352 21.159 23.46 23.46 0 0 1-24.848-2.919l-22.39-18.08c-7.14 10-9.92 22.26-9.92 35.51 0 11.63 6.07 18.26 11.69 27.53l24 40.48 7.54 12.72a191.2 191.2 0 0 1-36.37 20.29l-7.76-12.86-14.27-23.67c-16.93-23.55-33.61-34.94-62-34.94-28.8 0-45.23 13-61.31 35.28l-21.08 37a192.5 192.5 0 0 1-37.71-20.67c8.09-12.73 32.4-51 32.43-51a63.27 63.27 0 0 0 5.22-49 61.8 61.8 0 0 1-2.94-20.64c-13.88 7.85-22 38.24-41.42 48.78-26.65 14.47-44 5.26-52.1-1.65a3 3 0 0 1-.902-3.094 3 3 0 0 1 2.422-2.126c10.59-1.54 31.18-13.14 44.11-76 3.37-16.37 18.36-28.22 35-26.52a32.27 32.27 0 0 1 27.82 23.47c14.64 7.58 32.05 12.4 50 14.31a107.88 107.88 0 0 0 98-43.2c5.46-7.43 12.54-14 21.27-16.18a3 3 0 0 1 3.67 2.93v35.41l36.47 29.45A23.39 23.39 0 0 1 372 181.6"/><path fill="#2a3d5d" d="M153.85 140.61a1.4 1.4 0 0 1-.25-.12l-.59.67a58.4 58.4 0 0 0-14.07 36.59c-13.88 7.85-22 38.24-41.42 48.78-26.65 14.47-44 5.27-52.1-1.64a3 3 0 0 1-.885-3.117A3 3 0 0 1 47 219.67c10.59-1.54 31.17-13.15 44.1-76 3.37-16.37 18.36-28.22 35-26.52a32.28 32.28 0 0 1 27.75 23.46"/><path fill="#2a3d5d" d="M128.53 117.49c-13 2.5-23.7 14-26.48 28.84C86.61 228.9 60.25 231.06 53 230a39.3 39.3 0 0 1-7.59-5.09 3.002 3.002 0 0 1 .033-4.556A3 3 0 0 1 47 219.67c10.6-1.54 31.17-13.15 44.1-76 3.37-16.37 18.36-28.22 35-26.52.77.08 1.61.19 2.43.34" opacity=".5" style="mix-blend-mode:multiply"/><path fill="#728fc0" d="M151.39 181.53a64.7 64.7 0 0 0 3.07 21.56 62.6 62.6 0 0 1 2.85 19.74c-.18 15.24-4.71 25.2-8.3 31.53 0 0-23.65 37.19-32.93 51.78a174 174 0 0 1-11.85-7.71c8.09-12.73 32.4-51 32.43-51a63.24 63.24 0 0 0 5.22-49 61.8 61.8 0 0 1-2.94-20.64A58.4 58.4 0 0 1 153 141.16s.58-.67.59-.67q.119.072.25.12a112 112 0 0 0 10.5 4.77 61.17 61.17 0 0 0-12.94 36.12zm160.04.23c-4.66 6.53-7.23 13.49-8.74 21.52-12.06-23.13-4.15-44.75-2.8-46.54 0-.06.08-.08.1-.08.75-.13 2 7.57 4.79 13.91a38.6 38.6 0 0 0 6.65 11.19" opacity=".5" style="mix-blend-mode:multiply"/><path fill="#2a3d5d" d="m149.36 306-7.43 13.06a192.5 192.5 0 0 1-37.71-20.67l8.1-12.74A191.5 191.5 0 0 0 149.36 306"/><path fill="#2a3d5d" d="m124.17 293.39-8.1 12.75c-1-.61-2-1.22-3-1.85-1.17-.73-2.33-1.47-3.48-2.24-.82-.53-1.63-1.07-2.44-1.62-1-.66-1.94-1.33-2.89-2l.37-.59c.13-.2.27-.41.4-.63l.61-.95 5.22-8.21.29-.46c.32-.49.63-1 1-1.5.09-.13.17-.26.25-.4q5.66 4.05 11.77 7.7" opacity=".5" style="mix-blend-mode:multiply"/><path fill="#2a3d5d" d="M344.72 298a191.2 191.2 0 0 1-36.37 20.29l-7.76-12.86a191 191 0 0 0 36.61-20.12z"/><path stroke="#2a3d5d" stroke-linecap="round" stroke-miterlimit="10" stroke-width="7" d="M58.46 250.31c30.85 50.33 93.47 84.78 165.7 84.78S359 300.64 389.85 250.31"/></svg>