<svg xmlns="http://www.w3.org/2000/svg" width="430" height="430" fill="none" viewBox="0 0 430 430"><path fill="#728fc0" d="M333.469 145H265v170h132a3 3 0 0 0 3-3v-66.628c0-2.533-.481-5.034-1.408-7.372H317.5v-57h48.342l-15.065-26.021A20 20 0 0 0 333.469 145"/><path fill="#728fc0" d="M265 290.002v25h132a3 3 0 0 0 3-3v-22z" opacity=".5" style="mix-blend-mode:multiply"/><path fill="#ebe6ef" d="M35 88a3 3 0 0 1 3-3h229a3 3 0 0 1 3 3v227H38a3 3 0 0 1-3-3z"/><path fill="#ebe6ef" d="M60 85H38a3 3 0 0 0-3 3v224a3 3 0 0 0 3 3h232v-25H63a3 3 0 0 1-3-3z" opacity=".5" style="mix-blend-mode:multiply"/><path fill="#2a3d5d" d="M370 315.001c0 17.949-14.551 32.5-32.5 32.5s-32.5-14.551-32.5-32.5 14.551-32.5 32.5-32.5 32.5 14.551 32.5 32.5"/><path fill="#2a3d5d" d="M362.311 335.995a32.5 32.5 0 0 1-9.811 1.507c-17.949 0-32.5-14.551-32.5-32.5 0-8.003 2.892-15.33 7.689-20.993-13.154 4.16-22.689 16.463-22.689 30.993 0 17.949 14.551 32.5 32.5 32.5 9.947 0 18.85-4.469 24.811-11.507" opacity=".5" style="mix-blend-mode:multiply"/><circle cx="107.5" cy="315" r="32.5" fill="#2a3d5d"/><path fill="#2a3d5d" d="M132.311 335.995a32.5 32.5 0 0 1-9.811 1.507c-17.949 0-32.5-14.551-32.5-32.5a32.37 32.37 0 0 1 7.689-20.993C84.535 288.169 75 300.472 75 315.002c0 17.949 14.55 32.5 32.5 32.5 9.947 0 18.85-4.469 24.811-11.507" opacity=".5" style="mix-blend-mode:multiply"/><path fill="#728fc0" d="m365.263 180 32.046 55.351a20 20 0 0 1 1.956 4.649H318a3 3 0 0 1-3-3v-54a3 3 0 0 1 3-3z"/><path fill="#728fc0" d="M388.421 220H338a3 3 0 0 1-3-3v-37h-17a3 3 0 0 0-3 3v54a3 3 0 0 0 3 3h81.265a20 20 0 0 0-1.956-4.649z" opacity=".5" style="mix-blend-mode:multiply"/></svg>