<svg xmlns="http://www.w3.org/2000/svg" width="430" height="430" fill="none" viewBox="0 0 430 430"><path fill="#fff" d="M302.55 347.49c-38-2-70.3-22.2-87.6-51 20.3-26.7 54.6-43.4 92.6-41.3 37.2 2 69 21.4 86.5 49.2.7 1.1.6 2.4-.2 3.4-20.4 25.8-54.1 41.7-91.3 39.7"/><path fill="#fff" d="M127.45 347.391c38-2 70.3-22.2 87.6-51-20.3-26.7-54.6-43.4-92.6-41.3-37.2 2-69 21.4-86.5 49.2-.7 1.1-.6 2.4.2 3.4 20.5 25.8 54.2 41.7 91.3 39.7"/><path fill="#728fc0" d="M302.55 347.49c-38-2-70.3-22.2-87.6-51 20.3-26.7 54.6-43.4 92.6-41.3 37.2 2 69 21.4 86.5 49.2.7 1.1.6 2.4-.2 3.4-20.4 25.8-54.1 41.7-91.3 39.7" opacity=".5" style="mix-blend-mode:multiply"/><path fill="#728fc0" d="M127.45 347.391c38-2 70.3-22.2 87.6-51-20.3-26.7-54.6-43.4-92.6-41.3-37.2 2-69 21.4-86.5 49.2-.7 1.1-.6 2.4.2 3.4 20.5 25.8 54.2 41.7 91.3 39.7" opacity=".5" style="mix-blend-mode:multiply"/><path fill="#728fc0" d="M324.15 272.19c-30.8 27.3-72.2 35.1-109 24.3-6.2-37.8 6.5-78 37.3-105.2 30.3-26.8 70.8-34.8 107.1-24.8 1.1.3 2 1.3 2.2 2.4 5.5 37.2-7.3 76.4-37.6 103.3"/><path fill="#728fc0" d="M106.15 272.19c30.8 27.3 72.2 35.1 109 24.3 6.2-37.8-6.5-78-37.3-105.2-30.3-26.9-70.8-34.9-107.2-24.9-1.1.3-2 1.3-2.2 2.4-5.4 37.3 7.4 76.5 37.7 103.4"/><path fill="#728fc0" d="M274.85 190.59c0 45.4-23.8 85.3-59.7 107.9-35.9-22.5-59.7-62.4-59.7-107.9 0-44.8 23.1-84.1 58-106.8 1-.6 2.3-.6 3.2 0 35.1 22.7 58.2 62 58.2 106.8"/><path fill="#728fc0" d="M274.85 190.59c0 45.4-23.8 85.3-59.7 107.9-35.9-22.5-59.7-62.4-59.7-107.9 0-44.8 23.1-84.1 58-106.8 1-.6 2.3-.6 3.2 0 35.1 22.7 58.2 62 58.2 106.8" opacity=".7" style="mix-blend-mode:multiply"/></svg>