<svg xmlns="http://www.w3.org/2000/svg" width="430" height="430" fill="none" viewBox="0 0 430 430"><path fill="#728fc0" d="M117.277 288.086c40.341 0 73.043-32.703 73.043-73.043S157.618 142 117.277 142c-40.34 0-73.043 32.702-73.043 73.043 0 40.34 32.703 73.043 73.043 73.043m195.336 0c40.341 0 73.043-32.703 73.043-73.043S352.954 142 312.613 142c-40.34 0-73.043 32.702-73.043 73.043 0 40.34 32.703 73.043 73.043 73.043"/><path fill="#fff" d="M381.789 238.557c-4.951 14.569-14.374 27.07-26.634 35.869L265.573 159.61l-.198-.28c11.117-9.436 25.094-15.603 40.449-17.018l.047.067 7.095 8.999.1.123zm-127.137-67.97q.138.158.273.317l83.014 105.145 4.11 5.863a72.5 72.5 0 0 1-20.415 5.622l-.001-.001-77.166-97.527a27 27 0 0 1-.352-.383 73 73 0 0 1 10.537-19.036m-68.201 67.972c-4.951 14.568-14.374 27.07-26.634 35.868L70.235 159.611l-.198-.28c11.117-9.435 25.094-15.602 40.449-17.018l.047.067 7.095 9 .101.123zm-127.137-67.97q.138.157.273.317l83.014 105.145 4.11 5.863a72.5 72.5 0 0 1-20.415 5.622l-.001-.001-77.166-97.527-.352-.383a72.9 72.9 0 0 1 10.537-19.036" opacity=".5"/><path stroke="#2a3d5d" stroke-linecap="round" stroke-linejoin="round" stroke-miterlimit="10" stroke-width="7" d="M117.277 288.086c40.341 0 73.043-32.703 73.043-73.043S157.618 142 117.277 142c-40.34 0-73.043 32.702-73.043 73.043 0 40.34 32.703 73.043 73.043 73.043m195.336 0c40.341 0 73.043-32.703 73.043-73.043S352.954 142 312.613 142c-40.34 0-73.043 32.702-73.043 73.043 0 40.34 32.703 73.043 73.043 73.043"/><path stroke="#2a3d5d" stroke-linecap="round" stroke-linejoin="round" stroke-miterlimit="10" stroke-width="7" d="M241.718 197.39C235.297 189.811 225.711 185 215 185c-10.758 0-20.382 4.854-26.803 12.49M44.224 215H25m379.999 0H385.65"/></svg>