<svg xmlns="http://www.w3.org/2000/svg" width="430" height="430" fill="none" viewBox="0 0 430 430"><path stroke="#2a3d5d" stroke-linecap="round" stroke-miterlimit="10" stroke-width="7" d="M214.998 121.845v149.68M84.77 293.235v16.28a38 38 0 0 0 38 38v0a38 38 0 0 0 38-38v-46.46a25.1 25.1 0 0 1 15.505-23.21 25.1 25.1 0 0 1 9.615-1.91v0a25.12 25.12 0 0 1 23.91 17.4l5.2 16.19"/><path stroke="#2a3d5d" stroke-linecap="round" stroke-miterlimit="10" stroke-width="7" d="M345.228 293.235v16.28a38 38 0 0 1-38 38v0a37.997 37.997 0 0 1-38-38v-46.46a25.115 25.115 0 0 0-25.12-25.12v0a25.12 25.12 0 0 0-23.91 17.4l-5.2 16.19"/><path fill="#2a3d5d" d="M274.998 84.815v10.34a26.69 26.69 0 0 1-26.69 26.69h-66.67a26.687 26.687 0 0 1-26.64-26.69v-10.34a3 3 0 0 1 3-3h114a3 3 0 0 1 3 3"/><path fill="#728fc0" d="M233.208 271.525a3 3 0 0 1 2.915 2.163c.122.418.151.857.085 1.287l-8.68 56.74a12.636 12.636 0 0 1-12.5 10.764 12.64 12.64 0 0 1-12.5-10.764l-8.68-56.74a3.01 3.01 0 0 1 .703-2.419 3 3 0 0 1 2.297-1.031zm-121.889 21.71h-53.12a3 3 0 0 1-2.311-1.041 3 3 0 0 1-.69-2.439l10-61.61a3 3 0 0 1 3-2.52h33.181a3.004 3.004 0 0 1 3 2.52l10 61.61a3.005 3.005 0 0 1-1.77 3.235 3 3 0 0 1-1.29.245m260.471 0h-53.13a3 3 0 0 1-2.311-1.041 3 3 0 0 1-.689-2.439l10-61.61a3 3 0 0 1 3-2.52h33.18a3.004 3.004 0 0 1 3 2.52l10 61.61a3 3 0 0 1-.705 2.458 3 3 0 0 1-1.058.774 3 3 0 0 1-1.287.248"/><path fill="#2a3d5d" d="M195.168 121.845h-13.53a26.687 26.687 0 0 1-26.64-26.69v-10.34a3 3 0 0 1 3-3h10.53v13.34a26.69 26.69 0 0 0 26.64 26.69" opacity=".5" style="mix-blend-mode:multiply"/><path fill="#728fc0" d="M221.759 340.475a12.624 12.624 0 0 1-16.847-3.042 12.6 12.6 0 0 1-2.413-5.718l-8.68-56.74a3.01 3.01 0 0 1 .702-2.419 3 3 0 0 1 2.298-1.031h10l9.18 60.19a12.62 12.62 0 0 0 5.76 8.76m-142.61-114.82-10.94 67.58h-10a3 3 0 0 1-2.311-1.041 3 3 0 0 1-.69-2.439l10-61.61a3 3 0 0 1 3-2.52zm260.471 0-10.95 67.61h-10a3 3 0 0 1-2.311-1.041 3 3 0 0 1-.689-2.439l10-61.61a3 3 0 0 1 3-2.52z" opacity=".5" style="mix-blend-mode:multiply"/></svg>